
Format                         : MPEG-PS
File size                      : 157 MiB
Duration                       : 4mn 9s
Overall bit rate mode          : Variable
Overall bit rate               : 5 293 Kbps

Video
ID                             : 224 (0xE0)
Format                         : MPEG Video
Format version                 : Version 2
Format profile                 : Main@Main
Format settings, BVOP          : Yes
Format settings, Matrix        : Default
Format settings, GOP           : M=3, N=12
Duration                       : 4mn 9s
Bit rate mode                  : Variable
Bit rate                       : 4 963 Kbps
Maximum bit rate               : 7 000 Kbps
Width                          : 720 pixels
Height                         : 576 pixels
Display aspect ratio           : 16:9
Frame rate                     : 25.000 fps
Standard                       : PAL
Color space                    : YUV
Chroma subsampling             : 4:2:0
Bit depth                      : 8 bits
Scan type                      : Interlaced
Scan order                     : Top Field First
Compression mode               : Lossy
Bits/(Pixel*Frame)             : 0.479
Stream size                    : 147 MiB (94%)

Audio
ID                             : 192 (0xC0)
Format                         : MPEG Audio
Format version                 : Version 1
Format profile                 : Layer 2
Duration                       : 4mn 9s
Bit rate mode                  : Constant
Bit rate                       : 224 Kbps
Channel(s)                     : 2 channels
Sampling rate                  : 48.0 KHz
Compression mode               : Lossy
Delay relative to video        : -152ms
Stream size                    : 6.65 MiB (4%)

Screens:
 
http://i28.fastpic.ru/big/2012/0106/79/0ff9eae586142d86fa2a226a8de52179.jpg